# xmcd
#
# Track frame offsets: 
#        150
#        26812
#        53971
#        70772
#        102414
#        117385
#        144044
#        166049
#        190669
#        215656
#        239424
#        258391
#        279041
#        296291
#        314045
#
# Disc length: 4757 seconds
#
# Revision: 0
# Processed by: cddbd v1.5.2PL0 Copyright (c) Steve Scherf et al.
# Submitted via: ExactAudioCopy v0.95a5
#
DISCID=d912930f
DTITLE=Various Artist - Still Got the Blues  CD-3  
DYEAR=2005
DGENRE=Blues
TTITLE0=All My Blues - MIKE DUGAN and The BLUES MISSION
TTITLE1=Life Is Hard - FRED JAMES
TTITLE2=Big Legged Woman - JIMMY SPASEK
TTITLE3=I'm Leaving You - BILL PERRY
TTITLE4=3rd House On The Left - BLUEBIRDS
TTITLE5=Heart Of Lonely Man - BOBBY MACK
TTITLE6=Who Been Talking - LUCKY PETERSON
TTITLE7=The Monkey Man - TOM PETTY and The TRAVELIN' WILBURES
TTITLE8=Living In The House Of Blues - LUTHER ALLISON
TTITLE9=I'll Play The Blues For You - MELVIN TAYLOR
TTITLE10=Midnight Again - JON TIVEN GROUP
TTITLE11=Shining Through - ROBIN TROWER
TTITLE12=I Loved Another Woman - RICK VITO
TTITLE13=Just A Fool Who Loved You Too Much - JAKE THUNDER
TTITLE14=Load Me A Dime - DAVE MENIKETTI
EXTD=
EXTT0=
EXTT1=
EXTT2=
EXTT3=
EXTT4=
EXTT5=
EXTT6=
EXTT7=
EXTT8=
EXTT9=
EXTT10=
EXTT11=
EXTT12=
EXTT13=
EXTT14=
PLAYORDER=
